# xmcd CD database file
#
# Track frame offsets:
#	150
#	27794
#	47647
#	59671
#	77986
#	93780
#	143295
#	158577
#	181962
#
# Disc length: 2748 seconds
#
# Revision: 1
# Processed by: cddbd v1.5.2PL0 Copyright (c) Steve Scherf et al.
# Submitted via: CDex 1.78
#
DISCID=650aba09
DTITLE=Jefferson Airplane - Last Flight
DYEAR=2007
DGENRE=Psychedelic Rock
TTITLE0=John's Other
TTITLE1=Trial By Fire
TTITLE2=Law Man
TTITLE3=Have You Seen The Saucers?
TTITLE4=Aerie (Gang Of Eagles)
TTITLE5=Feel So Good
TTITLE6=Crown Of Creation
TTITLE7=Walking The Tou Tou
TTITLE8=Medley: Diana/Volunteers
EXTD=YEAR: 2007
EXTT0=
EXTT1=
EXTT2=
EXTT3=
EXTT4=
EXTT5=
EXTT6=
EXTT7=
EXTT8=
PLAYORDER=
